FFmpeg version SVN-r25716, Copyright (c) 2000-2010 the FFmpeg developers  built on Nov 10 2010 12:23:18 with gcc 4.1.2 20080704 (Red Hat 4.1.2-48)  configuration: --enable-libmp3lame --enable-shared --disable-mmx --arch=x86_64  libavutil     50.33. 0 / 50.33. 0  libavcore      0.12. 1 /  0.12. 1  libavcodec    52.94. 4 / 52.94. 4  libavformat   52.84. 0 / 52.84. 0  libavdevice   52. 2. 2 / 52. 2. 2  libavfilter    1.59. 0 /  1.59. 0  libswscale     0.12. 0 /  0.12. 0Input #0, avi, from '/RAID10/data/converted_video_files/41659.avi':  Duration: 00:01:11.42, start: 0.000000, bitrate: 8632 kb/s    Stream #0.0: Video: mjpeg, yuvj420p, 837x837 [PAR 1:1 DAR 1:1], 7 tbr, 7 tbn, 7 tbc    Metadata:      title           : ImageJ AVI     [buffer @ 0x1024550] w:837 h:837 pixfmt:yuvj420p[ffsink @ 0x10245d0] auto-inserting filter 'auto-inserted scaler 0' between the filter 'src' and the filter 'out'[scale @ 0x1023ae0] w:837 h:837 fmt:yuvj420p -> w:837 h:837 fmt:yuv420p flags:0x4Output #0, flv, to '/RAID10/data/converted_video_files/41659.flv':  Metadata:    encoder         : Lavf52.84.0    Stream #0.0: Video: flv, yuv420p, 837x837 [PAR 1:1 DAR 1:1], q=2-31, 600 kb/s, 1k tbn, 24 tbc    Metadata:      title           : ImageJ AVI     Stream mapping:  Stream #0.0 -> #0.0Press [q] to stop encodingframe=   13 fps=  0 q=22.0 size=     768kB time=1.75 bitrate=3594.2kbits/s    frame=   28 fps= 26 q=31.0 size=     838kB time=3.92 bitrate=1752.0kbits/s    frame=   45 fps= 28 q=31.0 size=     926kB time=6.33 bitrate=1197.8kbits/s    frame=   61 fps= 29 q=24.8 size=    1037kB time=8.62 bitrate= 984.5kbits/s    frame=   77 fps= 29 q=31.0 size=    1147kB time=10.92 bitrate= 861.1kbits/s    frame=   91 fps= 29 q=31.0 size=    1256kB time=12.92 bitrate= 796.4kbits/s    frame=  107 fps= 29 q=31.0 size=    1381kB time=15.17 bitrate= 745.8kbits/s    frame=  122 fps= 29 q=31.0 size=    1494kB time=17.33 bitrate= 705.9kbits/s    frame=  135 fps= 29 q=31.0 size=    1593kB time=19.17 bitrate= 680.6kbits/s    frame=  149 fps= 28 q=31.0 size=    1711kB time=21.17 bitrate= 662.2kbits/s    frame=  162 fps= 28 q=31.0 size=    1829kB time=23.04 bitrate= 650.2kbits/s    frame=  177 fps= 28 q=31.0 size=    1970kB time=25.17 bitrate= 641.2kbits/s    frame=  191 fps= 28 q=31.0 size=    2123kB time=27.17 bitrate= 640.2kbits/s    frame=  203 fps= 28 q=31.0 size=    2265kB time=28.92 bitrate= 641.6kbits/s    frame=  216 fps= 28 q=31.0 size=    2428kB time=30.75 bitrate= 646.9kbits/s    frame=  229 fps= 28 q=24.8 size=    2629kB time=32.62 bitrate= 660.1kbits/s    frame=  242 fps= 27 q=31.0 size=    2816kB time=34.46 bitrate= 669.4kbits/s    frame=  254 fps= 27 q=31.0 size=    3003kB time=36.17 bitrate= 680.1kbits/s    frame=  267 fps= 27 q=31.0 size=    3215kB time=38.04 bitrate= 692.2kbits/s    frame=  279 fps= 27 q=31.0 size=    3418kB time=39.75 bitrate= 704.5kbits/s    frame=  291 fps= 27 q=31.0 size=    3621kB time=41.46 bitrate= 715.5kbits/s    frame=  304 fps= 27 q=31.0 size=    3842kB time=43.33 bitrate= 726.4kbits/s    frame=  316 fps= 26 q=31.0 size=    4044kB time=45.04 bitrate= 735.6kbits/s    frame=  329 fps= 26 q=31.0 size=    4251kB time=46.92 bitrate= 742.2kbits/s    frame=  342 fps= 26 q=31.0 size=    4440kB time=48.75 bitrate= 746.2kbits/s    frame=  356 fps= 26 q=31.0 size=    4628kB time=50.75 bitrate= 747.1kbits/s    frame=  370 fps= 26 q=31.0 size=    4816kB time=52.75 bitrate= 747.9kbits/s    frame=  383 fps= 26 q=31.0 size=    4989kB time=54.62 bitrate= 748.2kbits/s    frame=  395 fps= 26 q=31.0 size=    5150kB time=56.33 bitrate= 748.9kbits/s    frame=  408 fps= 26 q=31.0 size=    5312kB time=58.17 bitrate= 748.2kbits/s    frame=  422 fps= 26 q=31.0 size=    5500kB time=60.17 bitrate= 748.9kbits/s    frame=  436 fps= 26 q=31.0 size=    5655kB time=62.17 bitrate= 745.1kbits/s    frame=  450 fps= 26 q=31.0 size=    5804kB time=64.17 bitrate= 741.0kbits/s    frame=  464 fps= 26 q=31.0 size=    5954kB time=66.17 bitrate= 737.2kbits/s    frame=  478 fps= 26 q=31.0 size=    6091kB time=68.17 bitrate= 732.0kbits/s    frame=  492 fps= 26 q=31.0 size=    6228kB time=70.17 bitrate= 727.2kbits/s    frame=  500 fps= 26 q=31.0 Lsize=    6311kB time=71.33 bitrate= 724.8kbits/s    video:6303kB audio:0kB global headers:0kB muxing overhead 0.127199%